<svg xmlns="http://www.w3.org/2000/svg" xmlns:xlink="http://www.w3.org/1999/xlink" width="500" zoomAndPan="magnify" viewBox="0 0 375 374.999991" height="500" preserveAspectRatio="xMidYMid meet" version="1.0"><defs><clipPath id="cb193d4592"><path d="M 30.167969 34.363281 L 344.828125 34.363281 L 344.828125 340.363281 L 30.167969 340.363281 Z M 30.167969 34.363281 " clip-rule="nonzero"/></clipPath></defs><g clip-path="url(#cb193d4592)"><path fill="#e384cc" d="M 271.273438 321.707031 C 273.476562 326.664062 278.128906 333.21875 283.949219 334.6875 C 281.925781 336.648438 279.601562 337.933594 276.722656 337.566406 C 275.070312 337.320312 274.640625 340.261719 276.292969 340.503906 C 283.03125 341.488281 287.074219 335.976562 290.378906 330.828125 C 294.605469 324.214844 297.542969 317.847656 298.402344 310.007812 C 298.953125 305.046875 299.015625 300.023438 300.117188 295.125 C 300.972656 291.269531 303.054688 287.777344 303.972656 283.917969 C 305.015625 279.449219 303.484375 274.242188 298.460938 273.382812 C 297.605469 273.261719 297.175781 274.488281 298.097656 274.734375 C 306.484375 276.875 299.933594 287.53125 298.460938 292.1875 C 296.871094 297.207031 296.6875 302.472656 296.074219 307.621094 C 295.277344 314.109375 293.625 319.804688 290.257812 325.4375 C 288.910156 327.707031 287.316406 330.644531 285.296875 333.15625 C 282.480469 332.300781 280.152344 331.199219 277.886719 328.933594 C 275.558594 326.605469 273.964844 323.726562 271.945312 321.152344 C 271.640625 320.664062 271.027344 321.277344 271.273438 321.707031 Z M 224.789062 314.601562 C 215.726562 309.457031 208.007812 301.554688 203.601562 292.1875 C 203.230469 291.449219 202.253906 292.003906 202.375 292.675781 C 204.273438 302.597656 215.785156 311.171875 224.238281 315.519531 C 224.851562 315.886719 225.402344 314.96875 224.789062 314.601562 Z M 80.933594 241.171875 C 87.546875 239.394531 94.222656 239.699219 100.957031 239.457031 C 106.042969 239.273438 111.859375 238.964844 116.207031 236.027344 C 116.699219 235.660156 116.394531 234.863281 115.78125 235.046875 C 109.410156 236.640625 103.53125 237.683594 96.976562 237.988281 C 91.40625 238.230469 85.953125 238.601562 80.625 240.375 C 80.199219 240.496094 80.382812 241.292969 80.933594 241.171875 Z M 128.027344 276.019531 C 131.519531 274.914062 135.683594 273.324219 138.191406 270.507812 C 138.5 270.140625 138.132812 269.585938 137.703125 269.832031 C 136.171875 270.691406 134.765625 271.914062 133.234375 272.773438 C 131.519531 273.753906 129.742188 274.609375 127.84375 275.285156 C 127.417969 275.46875 127.597656 276.140625 128.027344 276.019531 Z M 87.304688 131.730469 C 85.464844 128.914062 81.792969 126.28125 78.238281 127.324219 C 77.6875 127.507812 77.625 128.304688 78.238281 128.425781 C 79.707031 128.730469 81.179688 128.792969 82.648438 129.40625 C 84.117188 130.078125 85.585938 130.996094 86.628906 132.222656 C 86.933594 132.589844 87.546875 132.101562 87.304688 131.730469 Z M 106.226562 167.558594 C 118.230469 179.929688 128.640625 194.507812 145.664062 199.835938 C 146.09375 199.957031 146.277344 199.28125 145.847656 199.160156 C 137.03125 195.914062 129.742188 190.21875 123.375 183.421875 C 118.046875 177.726562 113.332031 171.171875 107.023438 166.515625 C 106.410156 166.089844 105.734375 167.070312 106.226562 167.558594 Z M 159.136719 127.507812 C 161.527344 129.28125 162.382812 135.347656 163.179688 138.101562 C 164.160156 141.59375 165.140625 145.023438 166 148.511719 C 166.121094 148.941406 166.792969 148.757812 166.671875 148.328125 C 165.507812 142.878906 164.285156 137.488281 162.8125 132.164062 C 162.199219 130.019531 162.019531 126.710938 159.382812 126.652344 C 158.894531 126.589844 158.832031 127.261719 159.136719 127.507812 Z M 136.113281 96.273438 C 132.132812 89.78125 128.515625 83.105469 126.984375 75.574219 C 125.578125 68.410156 124.964844 60.9375 123.066406 53.894531 C 122.882812 53.28125 121.84375 53.40625 121.90625 54.078125 C 122.453125 61.550781 124.109375 69.449219 125.761719 76.796875 C 127.417969 84.269531 131.398438 90.394531 135.5 96.703125 C 135.742188 97.070312 136.417969 96.703125 136.113281 96.273438 Z M 162.628906 159.109375 C 159.933594 143.246094 154.667969 128.242188 148.851562 113.300781 C 146.03125 105.949219 143.09375 98.601562 140.582031 91.191406 C 137.949219 83.476562 136.113281 75.636719 133.785156 67.796875 C 133.601562 67.183594 132.558594 67.304688 132.621094 67.980469 C 134.273438 83.476562 141.253906 98.660156 146.890625 113.054688 C 152.832031 128.121094 159.015625 143.367188 161.894531 159.351562 C 162.019531 159.78125 162.691406 159.597656 162.628906 159.109375 Z M 281.804688 176.4375 C 273.90625 178.03125 266.066406 179.992188 258.289062 181.890625 C 251.980469 183.480469 244.9375 184.769531 239.121094 187.769531 C 238.445312 188.136719 238.9375 189.054688 239.609375 188.933594 C 246.347656 187.769531 253.019531 185.136719 259.699219 183.359375 C 267.167969 181.398438 274.703125 179.441406 282.050781 177.175781 C 282.480469 176.992188 282.296875 176.378906 281.804688 176.4375 Z M 292.828125 149.675781 C 293.5625 149.433594 293.257812 148.390625 292.523438 148.511719 C 286.09375 149.921875 280.273438 153.289062 274.945312 157.023438 C 274.703125 157.210938 274.945312 157.636719 275.191406 157.453125 C 280.640625 153.839844 286.644531 151.699219 292.828125 149.675781 Z M 304.585938 147.042969 C 290.683594 151.511719 276.785156 157.945312 264.292969 165.414062 C 263.921875 165.597656 264.167969 166.210938 264.597656 166.089844 C 265.027344 165.96875 265.453125 165.84375 265.882812 165.722656 C 266.066406 165.660156 266.066406 165.355469 265.824219 165.355469 C 268.085938 165.355469 272.070312 162.414062 274.210938 161.433594 C 277.394531 159.902344 280.582031 158.433594 283.828125 157.023438 C 290.808594 153.960938 297.910156 151.390625 304.953125 148.574219 C 305.875 148.144531 305.503906 146.734375 304.585938 147.042969 Z M 249.53125 90.332031 C 249.101562 112.929688 244.875 134.425781 234.527344 154.757812 C 234.28125 155.308594 235.015625 155.742188 235.324219 155.25 C 246.039062 135.710938 252.472656 112.808594 251.125 90.394531 C 251.0625 89.292969 249.59375 89.292969 249.53125 90.332031 Z M 235.996094 57.875 C 234.527344 62.46875 234.40625 67.488281 233.730469 72.207031 C 232.933594 77.777344 231.707031 83.351562 230.179688 88.800781 C 230.054688 89.351562 230.851562 89.535156 230.972656 89.046875 C 232.75 83.65625 234.21875 78.269531 235.203125 72.632812 C 236.058594 67.429688 236.363281 62.222656 237.832031 57.140625 C 238.078125 56.222656 236.792969 55.855469 236.425781 56.652344 C 236.242188 56.40625 235.996094 56.28125 235.628906 56.34375 C 228.585938 57.570312 223.136719 62.527344 220.992188 69.328125 C 220.808594 69.816406 221.605469 70 221.726562 69.511719 C 223.929688 63.324219 229.503906 58.917969 235.996094 57.875 Z M 195.699219 107.054688 C 198.945312 97.804688 201.394531 89.046875 207.335938 80.964844 C 207.582031 80.59375 206.96875 80.105469 206.722656 80.472656 C 200.84375 87.820312 195.210938 97.253906 194.71875 106.867188 C 194.65625 107.480469 195.515625 107.542969 195.699219 107.054688 Z M 199.25 199.835938 C 198.394531 200.382812 197.597656 200.875 196.742188 201.367188 C 196.371094 201.550781 196.007812 201.671875 195.636719 201.730469 C 194.535156 204 193.558594 206.265625 192.578125 208.53125 C 194.84375 205.652344 197.105469 202.773438 199.25 199.835938 Z M 186.144531 204.792969 C 185.839844 206.507812 185.597656 208.285156 185.410156 210 C 185.960938 209.386719 186.453125 208.773438 187.003906 208.160156 C 188.410156 204.976562 189.820312 201.792969 191.046875 198.609375 C 193.433594 192.484375 195.761719 186.359375 197.964844 180.238281 C 197.046875 181.769531 195.882812 183.113281 194.476562 184.035156 C 193.738281 184.523438 193.003906 184.644531 192.390625 184.523438 C 192.148438 184.953125 191.902344 185.316406 191.59375 185.6875 C 191.59375 185.75 191.535156 185.75 191.472656 185.808594 C 191.65625 186.113281 191.71875 186.542969 191.59375 187.035156 C 190.1875 193.097656 187.1875 198.546875 186.144531 204.792969 Z M 164.957031 205.710938 C 166.671875 207.613281 168.449219 209.328125 170.34375 211.042969 C 168.9375 208.957031 167.652344 206.816406 166.488281 204.613281 C 165.9375 204.976562 165.445312 205.347656 164.957031 205.710938 Z M 151.359375 193.28125 L 151.359375 193.21875 L 151.300781 193.28125 C 151.300781 193.21875 151.300781 193.21875 151.359375 193.28125 Z M 192.390625 200.261719 C 192.390625 200.261719 192.332031 200.261719 192.390625 200.261719 C 192.390625 200.261719 192.332031 200.324219 192.332031 200.382812 C 192.332031 200.324219 192.332031 200.324219 192.390625 200.261719 Z M 181.980469 197.324219 C 181.980469 196.832031 181.980469 196.402344 182.042969 195.914062 C 181.796875 196.894531 181.613281 197.8125 181.367188 198.792969 C 181.554688 198.242188 181.796875 197.75 181.980469 197.324219 Z M 169.121094 189.054688 C 168.875 189.054688 168.628906 188.996094 168.386719 188.933594 C 168.753906 189.730469 169.183594 190.585938 169.546875 191.382812 C 169.488281 190.585938 169.304688 189.851562 169.121094 189.054688 Z M 199.558594 191.382812 C 199.679688 191.261719 199.621094 191.261719 199.558594 191.382812 Z M 199.925781 71.285156 C 199.863281 64.671875 200.84375 58.058594 201.882812 51.566406 C 201.945312 51.015625 202.925781 51.140625 202.867188 51.6875 C 202.191406 57.261719 202.007812 62.835938 201.761719 68.472656 C 202.070312 67.980469 202.375 67.550781 202.679688 67.121094 C 206.355469 62.039062 211.070312 57.570312 216.460938 54.628906 C 216.398438 54.566406 216.339844 54.507812 216.277344 54.445312 C 216.214844 54.324219 216.09375 54.199219 216.03125 54.078125 C 215.605469 53.464844 216.398438 52.855469 217.011719 53.097656 C 215.050781 52.058594 214.011719 49.546875 212.417969 47.648438 C 210.949219 45.933594 209.234375 44.402344 207.519531 42.929688 C 205.679688 41.339844 202.191406 37.542969 199.621094 37.417969 C 197.230469 37.296875 196.496094 40.238281 195.210938 41.953125 C 189.453125 49.792969 180.265625 56.160156 181.246094 67 C 181.308594 67.550781 181.003906 67.980469 180.570312 68.222656 C 184.921875 77.289062 186.515625 87.578125 187.800781 97.621094 C 187.859375 97.375 187.921875 97.128906 188.046875 96.886719 C 186.636719 92.050781 187.800781 86.105469 188.046875 81.332031 C 188.472656 73.613281 188.71875 65.960938 190.675781 58.425781 C 190.859375 57.753906 191.84375 58.058594 191.71875 58.730469 C 190.25 65.589844 190.125 72.574219 189.820312 79.554688 C 189.636719 83.78125 188.78125 88.863281 189.207031 93.457031 C 190.3125 90.699219 191.535156 88.007812 192.699219 85.371094 C 194.964844 80.59375 197.230469 75.820312 199.925781 71.285156 Z M 34.144531 144.714844 C 34.203125 144.714844 34.265625 144.777344 34.328125 144.777344 C 34.265625 144.226562 34.265625 143.613281 34.203125 143.0625 C 34.144531 142.449219 35.183594 142.265625 35.308594 142.9375 C 36.042969 146.492188 37.636719 149.675781 38.675781 153.167969 C 39.105469 154.515625 37.023438 155.433594 36.410156 154.148438 C 35.183594 151.699219 34.695312 148.820312 34.449219 146.0625 C 34.328125 146.1875 34.144531 146.246094 33.960938 146.308594 C 29.488281 146.796875 34.390625 156.839844 35.308594 158.066406 C 35.429688 158.25 35.554688 158.371094 35.675781 158.554688 C 36.226562 158.3125 36.902344 158.984375 36.652344 159.597656 C 38.183594 161.066406 40.023438 162.171875 41.800781 163.332031 C 44.554688 165.171875 47.496094 167.070312 47.925781 170.558594 C 48.046875 171.417969 46.820312 171.722656 46.332031 171.234375 C 43.332031 168.355469 40.511719 166.152344 37.144531 163.761719 C 36.53125 163.332031 35.980469 162.90625 35.492188 162.414062 C 34.757812 164.925781 34.816406 167.621094 35.980469 170.007812 C 37.265625 172.703125 39.902344 174.171875 41.429688 176.621094 C 43.332031 179.5625 43.945312 182.132812 47.128906 184.21875 C 49.761719 185.929688 52.824219 186.972656 55.703125 188.136719 C 61.335938 190.402344 66.96875 192.546875 72.605469 194.566406 C 72.605469 194.566406 72.605469 194.566406 72.542969 194.507812 C 69.175781 192.546875 66.050781 190.035156 62.804688 187.828125 C 59.132812 185.316406 55.273438 182.992188 51.71875 180.296875 C 51.292969 179.992188 51.660156 179.378906 52.148438 179.625 C 55.886719 181.582031 59.867188 183.785156 63.664062 186.175781 C 60.109375 182.625 56.558594 179.132812 52.515625 176.132812 C 51.78125 175.582031 52.394531 174.601562 53.1875 174.96875 C 60.230469 178.152344 65.316406 184.09375 71.011719 189.117188 C 74.378906 192.117188 77.992188 194.6875 82.035156 196.710938 C 85.710938 198.609375 89.691406 199.585938 93.300781 201.550781 C 93.300781 201.550781 93.300781 201.550781 93.363281 201.550781 C 97.34375 202.835938 101.386719 204.058594 105.371094 205.285156 C 99 198.851562 94.832031 189.054688 87.054688 184.582031 C 86.628906 184.339844 86.996094 183.726562 87.425781 183.972656 C 92.816406 186.910156 96.550781 191.503906 100.285156 196.28125 C 103.40625 200.261719 106.410156 203.753906 110.144531 206.753906 C 111.0625 207 111.980469 207.304688 112.898438 207.550781 C 111.003906 205.773438 109.289062 203.691406 107.820312 201.609375 C 101.082031 192.117188 96.671875 181.890625 86.933594 174.847656 C 86.507812 174.539062 86.933594 173.867188 87.363281 174.171875 C 94.894531 179.257812 99.859375 185.625 104.511719 193.339844 C 108.183594 199.40625 112.042969 205.160156 117.554688 208.835938 C 121.65625 210 125.824219 211.101562 129.988281 212.203125 C 135.988281 213.734375 142.050781 215.265625 148.113281 216.613281 C 151.421875 217.347656 155.28125 218.207031 158.832031 218.023438 C 157.851562 217.472656 156.871094 216.917969 155.894531 216.371094 C 149.277344 212.390625 142.726562 208.222656 136.171875 204.242188 C 135.683594 203.9375 136.113281 203.203125 136.601562 203.445312 C 142.234375 206.691406 147.933594 209.875 153.566406 213.183594 C 156.257812 214.777344 158.957031 216.371094 161.769531 217.59375 C 162.691406 217.347656 163.609375 216.980469 164.40625 216.492188 C 162.078125 213.550781 160.117188 210.429688 158.34375 207.0625 C 158.28125 206.9375 158.21875 206.753906 158.160156 206.628906 C 157.789062 206.265625 157.484375 205.894531 157.242188 205.40625 C 156.257812 205.160156 155.402344 204.363281 155.894531 203.203125 C 155.894531 203.140625 155.953125 203.082031 155.953125 203.019531 C 153.933594 200.628906 151.789062 198.363281 149.402344 196.34375 C 148.605469 195.667969 148.726562 194.6875 149.21875 194.015625 C 148.726562 194.015625 148.238281 193.953125 147.746094 193.710938 C 146.21875 192.976562 144.5 191.136719 143.15625 188.933594 C 142.296875 188.136719 141.5 187.28125 140.707031 186.421875 C 136.847656 182.316406 133.109375 178.152344 129.3125 174.050781 C 128.886719 173.558594 129.558594 172.886719 130.046875 173.316406 C 133.785156 177.113281 137.457031 181.335938 141.5 185.074219 C 140.335938 181.335938 140.949219 177.726562 145.421875 177.175781 C 149.09375 176.683594 151.972656 179.804688 153.75 182.625 C 155.710938 185.6875 156.75 189.359375 156.136719 192.976562 C 155.894531 194.261719 154.914062 194.8125 153.871094 194.75 C 155.832031 196.160156 157.605469 197.691406 159.261719 199.34375 C 160.425781 198.667969 161.710938 198.242188 163.058594 197.996094 C 159.136719 190.15625 155.953125 181.949219 152.953125 173.746094 C 152.707031 173.132812 153.6875 172.886719 153.871094 173.5 C 157.117188 181.707031 160.488281 189.914062 164.648438 197.75 C 165.078125 197.691406 165.445312 197.628906 165.875 197.628906 C 168.691406 197.382812 170.039062 201.304688 168.140625 203.082031 C 168.078125 203.140625 167.957031 203.261719 167.894531 203.324219 C 169.980469 206.628906 172.246094 209.816406 174.511719 212.9375 C 174.324219 210.367188 173.835938 207.855469 173.164062 205.40625 C 172.429688 202.648438 171.511719 200.019531 170.835938 197.261719 C 168.875 193.832031 167.222656 190.21875 165.628906 186.542969 C 161.832031 177.789062 158.28125 168.96875 154.605469 160.148438 C 154.421875 159.660156 155.28125 159.289062 155.523438 159.78125 C 159.015625 167.621094 162.503906 175.398438 166 183.238281 C 165.691406 177.601562 165.078125 167.925781 171.386719 167.742188 C 174.753906 167.621094 175.492188 170.683594 175.492188 173.316406 C 175.492188 176.804688 175.917969 182.074219 173.898438 185.074219 C 173.589844 185.503906 173.164062 185.75 172.734375 185.871094 C 172.734375 186.605469 172.367188 187.339844 171.875 187.890625 C 173.40625 190.769531 175.429688 193.402344 176.835938 196.34375 C 177.023438 196.773438 177.203125 197.199219 177.386719 197.570312 C 177.386719 196.21875 177.449219 194.8125 177.511719 193.402344 C 177.878906 182.992188 178.367188 172.582031 178.367188 162.109375 C 178.304688 140.917969 176.410156 119.730469 170.285156 99.457031 C 170.101562 98.84375 171.078125 98.539062 171.265625 99.214844 C 177.144531 117.890625 179.53125 137.367188 180.023438 156.902344 C 180.265625 166.824219 180.085938 176.746094 179.652344 186.667969 C 179.53125 190.035156 179.347656 193.464844 179.289062 196.832031 C 181.796875 186.300781 185.226562 175.765625 186.144531 165.046875 C 187.738281 145.816406 184.800781 126.28125 180.757812 107.480469 C 180.695312 107.113281 181.246094 106.929688 181.308594 107.296875 C 184.738281 122.363281 187.738281 137.488281 188.046875 152.921875 C 189.023438 135.898438 187.492188 118.871094 185.347656 102.03125 C 183.390625 86.660156 181.921875 68.347656 169.488281 57.386719 C 166.609375 54.8125 163.300781 52.855469 159.566406 51.75 C 156.871094 50.953125 154.054688 50.648438 151.542969 49.300781 C 156.566406 54.996094 160.117188 62.589844 162.324219 69.449219 C 162.503906 70.0625 161.585938 70.308594 161.34375 69.695312 C 159.566406 65.039062 157.425781 60.570312 154.667969 56.464844 C 152.15625 52.671875 148.972656 49.546875 146.277344 45.933594 C 146.09375 45.6875 146.21875 45.320312 146.460938 45.136719 C 145.910156 44.585938 145.359375 44.097656 144.746094 43.605469 C 140.152344 39.808594 134.765625 40.851562 130.90625 45.015625 L 130.84375 45.074219 C 130.660156 45.992188 129.375 45.992188 129.253906 45.015625 C 129.3125 43.175781 128.578125 41.953125 127.046875 41.21875 C 126.066406 39.867188 124.84375 39.6875 123.433594 40.726562 C 121.046875 41.398438 120.1875 42.257812 118.78125 44.28125 C 117.1875 46.546875 116.023438 49.117188 115.289062 51.6875 C 113.757812 56.957031 113.695312 62.527344 114.800781 67.859375 C 115.902344 73.371094 118.105469 78.574219 120.738281 83.535156 C 123.1875 88.066406 126.433594 92.355469 128.027344 97.3125 C 128.457031 98.722656 126.375 99.578125 125.640625 98.296875 C 125.515625 98.109375 125.453125 97.925781 125.332031 97.742188 C 125.210938 97.925781 124.90625 98.046875 124.660156 97.867188 C 120.496094 95.046875 116.941406 90.824219 112.472656 88.375 C 114.554688 94.191406 118.230469 98.90625 121.472656 104.113281 C 124.90625 109.683594 127.78125 115.441406 130.539062 121.382812 C 130.785156 121.875 130.046875 122.363281 129.742188 121.8125 C 126.375 115.320312 122.640625 108.949219 118.65625 102.824219 C 115.71875 98.355469 111.125 93.578125 111.1875 87.882812 C 111.1875 87.820312 111.1875 87.761719 111.246094 87.699219 C 110.449219 87.332031 109.59375 87.023438 108.738281 86.78125 C 100.34375 84.574219 94.589844 89.84375 92.753906 97.5625 C 92.566406 98.417969 91.160156 98.480469 90.976562 97.5625 C 89.691406 90.578125 96.183594 84.757812 102.671875 84.023438 C 111.125 83.105469 118.71875 89.90625 124.230469 95.84375 C 116.574219 82.800781 107.820312 68.101562 112.105469 52.421875 C 113.453125 47.523438 116.878906 40.054688 122.210938 38.214844 C 125.945312 36.929688 130.171875 39.6875 130.722656 43.421875 C 132.929688 40.789062 136.234375 39.382812 139.785156 39.5625 C 145.664062 39.867188 148.359375 45.441406 153.445312 47.523438 C 159.078125 49.851562 164.40625 50.160156 169.488281 54.015625 C 172.980469 56.710938 175.917969 60.078125 178.246094 63.816406 C 178.492188 59.160156 180.632812 54.996094 183.511719 51.199219 C 185.410156 48.75 187.613281 46.484375 189.636719 44.15625 C 191.964844 41.523438 193.496094 38.398438 195.699219 35.765625 C 198.945312 31.96875 204.210938 36.808594 206.90625 39.132812 C 211.4375 43.054688 216.582031 47.402344 218.296875 53.40625 C 218.296875 53.464844 218.296875 53.527344 218.296875 53.527344 C 222.828125 51.445312 227.789062 50.40625 233.117188 51.015625 C 234.097656 51.140625 234.160156 52.671875 233.117188 52.609375 C 206.601562 51.382812 194.964844 85.433594 189.207031 105.765625 C 189.144531 105.949219 189.023438 106.132812 188.902344 106.257812 C 190.859375 121.445312 192.085938 136.753906 191.351562 152.066406 C 190.738281 164.925781 187.492188 177.539062 185.902344 190.21875 C 186.757812 188.8125 187.554688 187.402344 188.105469 185.871094 C 188.289062 185.257812 188.71875 184.890625 189.144531 184.769531 C 186.757812 179.625 189.390625 168.171875 195.515625 167.128906 C 199.3125 166.457031 200.722656 169.640625 200.476562 172.703125 C 206.417969 155.679688 211.804688 138.410156 216.460938 121.015625 C 216.644531 120.402344 217.5625 120.648438 217.378906 121.261719 C 212.847656 139.328125 207.765625 157.210938 201.640625 174.847656 C 199.433594 181.214844 197.105469 187.523438 194.71875 193.769531 C 195.453125 192.730469 196.3125 191.8125 197.167969 190.890625 C 201.640625 181.949219 205.742188 172.886719 209.480469 163.640625 C 216.949219 145.023438 222.707031 125.792969 227.484375 106.316406 C 227.605469 105.949219 228.160156 106.074219 228.097656 106.5 C 224.300781 127.078125 218.175781 147.105469 210.335938 166.457031 C 207.335938 173.804688 204.089844 181.09375 200.601562 188.199219 C 200.722656 188.136719 200.84375 188.015625 200.90625 187.953125 C 202.191406 187.09375 204.398438 187.585938 205.070312 189.054688 C 205.316406 189.546875 205.4375 190.035156 205.558594 190.527344 C 213.15625 178.949219 219.523438 166.457031 223.136719 153.042969 C 223.320312 152.433594 224.179688 152.679688 224.054688 153.289062 C 220.683594 167.683594 214.253906 180.789062 206.050781 193.035156 C 202.191406 198.792969 198.027344 204.363281 193.679688 209.753906 C 192.820312 210.796875 192.027344 211.898438 191.167969 213 C 194.230469 211.714844 197.476562 210.613281 200.476562 209.328125 C 201.148438 209.019531 201.761719 210 201.089844 210.367188 C 197.046875 212.265625 192.882812 214.714844 188.65625 216.371094 C 188.535156 216.554688 188.410156 216.734375 188.226562 216.859375 C 187.800781 217.59375 187.308594 218.328125 186.820312 219.0625 C 186.941406 219.0625 187.125 219.0625 187.308594 219.125 C 188.046875 219.308594 188.78125 219.554688 189.515625 219.796875 C 194.476562 218.085938 199.742188 216.980469 204.703125 215.203125 C 211.804688 212.753906 218.789062 209.875 225.460938 206.449219 C 225.953125 206.203125 226.445312 206.9375 225.890625 207.242188 C 216.09375 212.816406 204.945312 218.144531 193.679688 220.902344 C 197.597656 221.511719 201.210938 221.882812 205.375 221.207031 C 209.601562 220.472656 213.703125 219.125 217.746094 217.777344 C 218.480469 217.53125 218.726562 218.636719 218.054688 218.878906 C 213.335938 220.714844 207.457031 223.105469 201.761719 223.597656 C 202.132812 223.71875 202.496094 223.839844 202.867188 223.902344 C 209.234375 225.554688 215.234375 225.554688 221.667969 224.269531 C 232.875 222.066406 242.855469 219.617188 254.429688 220.59375 C 275.316406 222.429688 302.320312 229.351562 315.488281 207.613281 C 315.855469 207 317.019531 207.367188 316.710938 208.160156 C 308.507812 230.820312 279.050781 226.839844 260.492188 224.574219 C 254.125 223.777344 247.757812 223.164062 241.324219 223.71875 C 235.9375 224.148438 230.730469 225.617188 225.460938 226.78125 C 252.53125 230.515625 275.375 248.707031 295.585938 266.097656 C 297.117188 267.382812 294.914062 269.527344 293.382812 268.304688 C 271.882812 250.296875 250.207031 231.679688 221.480469 227.636719 C 221.296875 227.699219 221.054688 227.699219 220.871094 227.757812 C 217.992188 228.25 215.234375 228.433594 212.480469 228.371094 C 216.339844 229.902344 220.074219 231.679688 223.6875 233.453125 C 231.035156 237.070312 238.628906 241.050781 245 246.316406 C 247.757812 248.582031 250.023438 251.15625 251.980469 254.09375 C 254.492188 257.953125 257.371094 260.21875 260.859375 263.097656 C 266.433594 267.628906 271.148438 273.996094 273.230469 280.917969 C 273.351562 281.34375 272.742188 281.59375 272.496094 281.222656 C 268.882812 273.382812 264.472656 267.691406 257.554688 262.605469 C 252.042969 258.5625 249.53125 252.378906 244.324219 247.96875 C 232.628906 238.046875 217.992188 232.84375 203.90625 227.269531 C 198.148438 226.105469 192.515625 224.148438 186.820312 222.125 C 186.574219 222.125 186.332031 222.066406 186.207031 221.882812 C 185.777344 221.636719 185.472656 221.207031 185.410156 220.777344 C 185.042969 221.207031 184.738281 221.636719 184.308594 222.066406 C 192.882812 224.882812 201.335938 228.3125 209.050781 232.90625 C 218.480469 238.539062 225.402344 246.132812 230.914062 255.5625 C 234.160156 261.136719 237.160156 266.710938 241.203125 271.792969 C 245.246094 276.875 249.898438 281.46875 254.0625 286.429688 C 260.738281 294.390625 266.496094 303.761719 266.371094 314.476562 C 266.371094 314.96875 265.636719 314.96875 265.636719 314.476562 C 265.027344 301.863281 257.25 292.308594 249.101562 283.367188 C 241.753906 275.34375 235.628906 267.320312 230.179688 257.890625 C 224.542969 248.152344 217.871094 240.3125 208.128906 234.496094 C 200.722656 230.027344 192.636719 227.023438 184.554688 224.085938 C 185.289062 224.757812 186.023438 225.433594 186.757812 226.046875 C 191.535156 230.269531 196.066406 234.621094 200.476562 239.214844 C 209.171875 248.273438 216.765625 258.015625 223.746094 268.425781 C 224.054688 268.851562 223.382812 269.222656 223.074219 268.789062 C 216.277344 259.542969 208.804688 250.601562 200.90625 242.273438 C 197.292969 238.476562 193.558594 234.800781 189.699219 231.25 C 187.371094 229.109375 184.984375 226.660156 182.347656 224.636719 C 184.246094 231.496094 186.941406 238.046875 190.617188 244.171875 C 192.882812 248.03125 195.515625 251.644531 198.457031 255.011719 C 200.601562 257.523438 203.476562 259.730469 204.824219 262.792969 C 206.476562 266.648438 206.660156 270.691406 208.867188 274.488281 C 211.070312 278.285156 214.132812 281.59375 217.378906 284.589844 C 223.746094 290.472656 230.972656 295.308594 236.792969 301.863281 C 237.160156 302.292969 236.546875 302.964844 236.121094 302.535156 C 230.117188 295.863281 222.402344 291.144531 215.785156 285.144531 C 209.785156 279.691406 205.925781 273.628906 203.96875 265.730469 C 202.742188 260.890625 198.394531 257.707031 195.332031 253.972656 C 192.882812 250.972656 190.738281 247.785156 188.78125 244.417969 C 185.289062 238.417969 182.59375 231.984375 180.757812 225.308594 C 180.695312 225.371094 180.570312 225.492188 180.511719 225.554688 C 180.328125 225.800781 180.144531 225.984375 179.898438 226.105469 C 179.347656 226.597656 178.859375 227.085938 178.304688 227.578125 C 178.246094 227.636719 178.183594 227.636719 178.121094 227.636719 C 178.734375 232.84375 181.183594 238.230469 182.777344 242.949219 C 184.859375 249.070312 187.066406 255.136719 189.515625 261.136719 C 189.699219 261.625 188.839844 261.996094 188.65625 261.503906 C 185.777344 254.953125 183.023438 248.398438 180.632812 241.664062 C 178.917969 236.761719 176.285156 231.25 176.347656 225.921875 C 175.492188 225.617188 174.632812 225.1875 173.777344 224.695312 C 174.695312 236.152344 175.246094 247.480469 178.554688 258.625 C 182.101562 270.445312 189.578125 280.734375 191.351562 293.105469 C 191.535156 294.269531 189.820312 294.757812 189.578125 293.59375 C 187.125 280.917969 179.039062 270.199219 175.367188 257.828125 C 173.46875 251.460938 172.246094 244.785156 171.449219 237.988281 C 171.140625 239.761719 170.835938 241.539062 170.46875 243.195312 C 168.324219 252.992188 165.8125 262.730469 163.179688 272.40625 C 162.996094 273.140625 161.894531 272.832031 162.019531 272.097656 C 163.609375 262.914062 165.386719 253.785156 167.34375 244.601562 C 168.265625 240.375 169 236.152344 169.121094 231.800781 C 169.242188 228.066406 168.691406 224.453125 168.386719 220.777344 C 168.265625 220.777344 168.078125 220.714844 167.957031 220.714844 C 167.835938 221.757812 167.710938 222.859375 167.53125 223.902344 C 167.957031 225.675781 167.589844 227.269531 166.855469 228.800781 C 165.9375 234.863281 164.773438 240.925781 162.566406 246.4375 C 159.628906 253.664062 154.542969 259.484375 148.175781 263.890625 C 147.625 264.261719 147.136719 263.402344 147.625 262.972656 C 158.21875 255.378906 161.957031 244.234375 164.160156 232.414062 C 162.9375 233.640625 161.585938 234.742188 160.300781 235.71875 C 156.871094 238.292969 153.320312 240.683594 149.585938 242.824219 C 145.847656 244.96875 140.644531 246.5625 138.5625 250.601562 C 138.316406 251.09375 137.644531 250.664062 137.886719 250.175781 C 140.277344 245.335938 146.09375 243.5 150.382812 240.742188 C 155.523438 237.4375 162.324219 233.578125 164.894531 227.820312 C 165.203125 225.738281 165.507812 223.597656 165.8125 221.511719 C 162.199219 225.371094 158.402344 229.046875 153.992188 231.925781 C 147.5 236.152344 139.910156 237.988281 132.679688 240.621094 C 116.820312 246.4375 101.632812 254.644531 88.097656 264.75 C 87.730469 264.996094 87.425781 264.445312 87.730469 264.136719 C 100.101562 254.644531 113.332031 246.742188 127.722656 240.804688 C 135.195312 237.742188 143.339844 235.78125 150.382812 231.925781 C 155.402344 229.167969 159.628906 225.25 163.609375 221.148438 C 146.15625 226.902344 127.046875 228.675781 108.917969 229.78125 C 99.0625 230.394531 88.28125 231.925781 78.484375 230.699219 C 68.5 229.414062 61.027344 221.269531 50.496094 224.207031 C 49.085938 224.636719 48.351562 222.679688 49.515625 221.882812 C 56.925781 217.042969 65.4375 222.738281 72.480469 225.554688 C 82.15625 229.414062 94.40625 227.148438 104.574219 226.597656 C 121.046875 225.738281 137.089844 223.960938 153.074219 220.902344 C 146.890625 220.164062 140.519531 218.023438 135.742188 216.796875 C 119.394531 212.695312 103.164062 207.917969 87.242188 202.40625 C 79.402344 199.710938 71.625 196.832031 63.90625 193.832031 C 57.601562 191.382812 49.945312 189.359375 44.433594 185.257812 C 42.414062 183.726562 41.246094 182.011719 40.085938 179.746094 C 38.429688 176.4375 35.492188 174.292969 33.777344 171.109375 C 31.878906 167.5 32.0625 163.578125 33.898438 160.269531 C 32.859375 159.109375 32 157.820312 31.390625 156.351562 C 30.164062 153.960938 27.714844 143.246094 34.144531 144.714844 Z M 74.871094 266.953125 C 72.847656 264.503906 72.113281 262.421875 71.929688 259.296875 C 71.808594 257.402344 71.746094 255.625 70.09375 254.460938 C 69.480469 254.03125 68.683594 254.644531 68.683594 255.257812 C 68.625 256.605469 69.113281 257.890625 69.296875 259.238281 C 69.480469 260.464844 69.601562 261.75 69.972656 262.972656 C 70.707031 265.054688 72.050781 266.953125 73.953125 268.117188 C 74.75 268.546875 75.421875 267.566406 74.871094 266.953125 Z M 145.484375 284.347656 C 138.683594 288.386719 132.316406 286.246094 125.027344 286.796875 C 121.535156 287.105469 118.535156 288.632812 115.167969 289.554688 C 111.492188 290.53125 107.878906 290.289062 104.328125 289.308594 C 109.410156 285.9375 113.941406 282.140625 119.699219 279.753906 C 120.066406 279.570312 119.820312 278.957031 119.453125 279.140625 C 113.636719 281.46875 107.082031 284.164062 102.734375 288.878906 C 97.222656 287.105469 92.203125 284.589844 87.484375 281.46875 C 87.546875 281.40625 87.609375 281.285156 87.667969 281.164062 C 90.488281 272.039062 99.425781 268.304688 107.082031 263.769531 C 107.574219 263.464844 107.144531 262.792969 106.652344 263.035156 C 99 266.832031 88.097656 271.058594 86.320312 280.609375 C 85.160156 279.8125 84.058594 278.957031 82.890625 278.039062 C 82.035156 277.363281 81.054688 278.160156 81.421875 279.140625 C 84.300781 285.757812 93.488281 288.695312 99.671875 291.085938 C 103.714844 292.617188 108 293.71875 112.410156 293.289062 C 116.941406 292.859375 120.863281 290.351562 125.332031 289.859375 C 129.804688 289.367188 134.273438 290.410156 138.746094 289.613281 C 142.050781 289 145.113281 287.59375 147.808594 285.511719 C 153.199219 281.40625 157.546875 275.285156 160.792969 269.464844 C 161.222656 268.730469 160.117188 268.054688 159.628906 268.789062 C 155.523438 274.609375 151.789062 280.609375 145.484375 284.347656 Z M 53.066406 249.929688 C 52.453125 254.582031 56.4375 258.6875 59.191406 261.871094 C 60.230469 263.035156 61.519531 264.199219 62.375 265.484375 C 64.519531 268.484375 63.664062 269.585938 64.152344 272.464844 C 64.460938 274.300781 65.195312 276.019531 66.355469 277.550781 C 67.707031 279.328125 69.601562 280.855469 71.746094 281.40625 C 74.195312 288.511719 81.117188 292.492188 88.097656 294.390625 C 98.203125 297.085938 109.105469 297.757812 119.453125 299.105469 C 128.152344 300.269531 137.703125 301.738281 145.96875 297.878906 C 153.199219 294.511719 158.832031 286.675781 161.097656 279.203125 C 161.527344 277.734375 159.566406 277.183594 158.832031 278.222656 C 153.625 285.203125 151.117188 293.042969 141.988281 295.921875 C 134.519531 298.25 126.3125 296.839844 118.78125 295.863281 C 110.144531 294.757812 101.328125 294.023438 92.753906 292.554688 C 85.035156 291.207031 77.808594 288.328125 73.765625 281.59375 C 74.195312 281.59375 74.5625 281.53125 74.992188 281.46875 C 75.542969 281.34375 75.726562 280.425781 75.175781 280.183594 C 73.09375 279.203125 70.828125 278.53125 69.175781 276.875 C 66.296875 273.996094 67.152344 271.242188 66.417969 267.75 C 65.742188 264.628906 62.988281 262.421875 60.96875 260.15625 C 59.867188 258.933594 58.761719 257.644531 57.84375 256.359375 C 56.375 254.277344 55.152344 250.910156 56.128906 248.335938 C 56.804688 246.621094 59.132812 245.335938 60.230469 243.867188 C 62.195312 241.109375 62.558594 237.925781 61.273438 234.800781 C 61.089844 234.3125 60.109375 234.3125 60.230469 234.925781 C 60.84375 240.007812 58.703125 242.214844 55.515625 245.519531 C 54.292969 246.804688 53.3125 248.152344 53.066406 249.929688 Z M 45.78125 229.597656 C 45.226562 231.617188 46.636719 232.90625 48.167969 233.945312 C 51.109375 235.90625 54.355469 238.230469 57.601562 239.640625 C 58.394531 240.007812 59.4375 238.964844 58.640625 238.292969 C 56.925781 236.886719 54.96875 235.84375 53.066406 234.679688 C 51.964844 234.007812 48.289062 232.476562 47.675781 230.820312 C 49.699219 230.699219 51.414062 229.535156 52.269531 227.636719 C 52.515625 227.148438 52.089844 226.71875 51.660156 226.71875 C 54.90625 225.066406 59.191406 228.003906 61.886719 229.78125 C 64.949219 231.800781 67.335938 234.375 69.847656 237.007812 C 70.214844 237.375 70.890625 236.886719 70.582031 236.457031 C 68.011719 232.171875 63.96875 228.738281 59.558594 226.414062 C 56.621094 224.882812 52.945312 223.164062 50.128906 225.738281 C 49.457031 226.351562 50.375 227.578125 51.109375 227.023438 C 51.109375 227.023438 51.171875 227.023438 51.171875 226.964844 C 50.191406 228.371094 48.597656 229.109375 46.882812 228.863281 C 46.453125 228.800781 45.902344 229.046875 45.78125 229.597656 Z M 189.269531 297.144531 C 187.800781 304.433594 190.1875 312.519531 194.105469 318.644531 C 195.210938 320.417969 197.167969 324.03125 199.496094 324.277344 C 201.761719 324.519531 202.617188 320.722656 204.210938 320.539062 C 204.210938 320.785156 204.273438 320.96875 204.398438 321.214844 C 209.847656 329.972656 221.421875 333.09375 230.789062 335.605469 C 237.039062 337.320312 243.527344 339.035156 250.082031 339.035156 C 256.757812 339.097656 263.1875 336.894531 269.863281 336.710938 C 270.597656 336.710938 270.597656 335.605469 269.863281 335.542969 C 264.042969 334.992188 258.472656 336.035156 252.65625 336.15625 C 246.347656 336.28125 240.222656 334.933594 234.160156 333.277344 C 223.625 330.464844 214.316406 327.523438 206.601562 319.5 C 206.050781 318.949219 205.375 319.007812 204.886719 319.316406 C 203.785156 318.828125 203.601562 318.828125 202.3125 319.378906 C 200.964844 319.925781 201.640625 320.539062 200.167969 320.847656 C 198.027344 321.277344 197.355469 319.007812 196.25 317.296875 C 192.390625 310.988281 191.78125 304.496094 191.414062 297.332031 C 191.351562 296.289062 189.515625 295.921875 189.269531 297.144531 Z M 256.023438 150.964844 C 255.347656 150.964844 254.675781 150.964844 253.941406 150.964844 C 253.269531 151.023438 252.53125 150.902344 251.917969 150.964844 C 251.859375 150.964844 251.738281 150.964844 251.675781 150.964844 C 248.613281 155.679688 245.246094 160.269531 241.449219 164.496094 C 241.140625 164.800781 240.835938 164.984375 240.46875 165.046875 C 239.609375 166.640625 238.691406 168.171875 237.773438 169.703125 C 242.855469 165.234375 247.816406 160.699219 252.65625 155.800781 C 254.1875 154.269531 255.71875 152.679688 257.308594 151.148438 C 256.941406 151.023438 256.511719 150.964844 256.023438 150.964844 Z M 339.679688 156.902344 C 338.148438 152.125 337.839844 147.042969 334.230469 143.246094 C 329.453125 138.285156 322.285156 136.507812 317.082031 131.976562 C 316.835938 132.101562 316.527344 132.164062 316.164062 132.039062 C 307.464844 129.28125 299.320312 128.730469 290.5625 131.488281 C 282.417969 134.058594 275.253906 138.957031 268.820312 144.410156 C 257.613281 153.839844 248.0625 166.332031 235.261719 173.746094 C 233.851562 175.886719 232.382812 177.96875 230.789062 180.050781 C 226.503906 185.75 221.789062 191.136719 216.582031 196.039062 C 211.4375 200.9375 205.621094 206.449219 199.25 209.691406 C 197.902344 210.367188 196.25 208.59375 197.539062 207.425781 C 202.925781 202.589844 208.988281 198.667969 214.195312 193.648438 C 219.644531 188.441406 224.726562 182.746094 229.199219 176.621094 C 237.652344 165.046875 244.203125 152.125 248.492188 138.410156 C 251.0625 130.140625 252.777344 121.625 254.0625 113.054688 C 255.285156 104.664062 257.125 95.476562 254.980469 87.085938 C 253.207031 80.167969 249.285156 74.042969 246.898438 67.367188 C 245.917969 64.671875 245.183594 61.855469 245 58.976562 C 244.875 57.507812 245.488281 55.304688 245.058594 53.894531 C 243.164062 47.402344 239.058594 52.792969 237.589844 54.691406 C 237.039062 55.425781 235.9375 54.507812 236.300781 53.710938 C 237.894531 50.769531 241.691406 46.300781 245.367188 48.933594 C 248.980469 51.503906 247.144531 59.039062 248 62.652344 C 249.226562 67.734375 251.675781 72.390625 253.878906 77.167969 C 254.613281 74.347656 255.777344 71.472656 256.574219 68.777344 C 256.757812 68.164062 257.738281 68.410156 257.554688 69.019531 C 256.695312 72.390625 256.207031 76.25 254.921875 79.554688 C 255.105469 80.042969 255.347656 80.472656 255.535156 80.964844 C 256.082031 82.371094 256.574219 83.839844 257.003906 85.25 C 260.125 78.941406 264.71875 71.53125 264.78125 64.550781 C 264.78125 63.9375 265.761719 63.9375 265.761719 64.550781 C 265.945312 72.453125 261.472656 80.71875 257.796875 87.578125 C 257.738281 87.699219 257.675781 87.761719 257.613281 87.820312 C 258.472656 91.863281 258.59375 96.03125 258.289062 100.375 C 257.1875 115.75 254.429688 130.8125 249.410156 145.023438 C 255.285156 130.445312 261.839844 115.992188 265.148438 100.683594 C 265.269531 100.070312 266.25 100.316406 266.128906 100.929688 C 264.230469 111.035156 260.859375 120.585938 257.1875 130.199219 C 255.777344 133.9375 254.492188 137.917969 253.082031 141.898438 C 254.613281 139.203125 256.082031 136.507812 257.492188 133.753906 C 262.636719 123.832031 268.332031 113.726562 270.414062 102.582031 C 272.433594 91.988281 273.171875 79.800781 272.007812 69.082031 C 271.394531 63.445312 269.433594 57.507812 265.027344 53.773438 C 260.3125 49.792969 253.941406 49.914062 249.164062 53.589844 C 248.429688 54.199219 247.632812 52.976562 248.183594 52.363281 C 254.429688 45.015625 265.390625 48.75 270.351562 55.609375 C 277.640625 65.652344 275.804688 80.71875 275.070312 92.292969 C 274.640625 98.84375 273.722656 105.398438 271.640625 111.644531 C 269.496094 117.890625 266.371094 123.832031 263.433594 129.710938 C 260.125 136.324219 256.636719 142.9375 252.714844 149.183594 C 252.960938 149.0625 253.144531 149.003906 253.449219 148.941406 C 254.1875 148.820312 254.980469 148.699219 255.777344 148.699219 C 256.816406 148.636719 258.289062 148.511719 259.207031 149.125 C 263.25 145.144531 267.414062 141.347656 272.007812 137.917969 C 284.195312 128.792969 302.566406 121.503906 317.203125 129.464844 C 317.632812 129.710938 317.816406 130.078125 317.816406 130.507812 C 324.738281 135.957031 334.902344 137.367188 339.066406 145.878906 C 341.332031 150.535156 342.496094 155.984375 344.332031 160.820312 C 346.050781 165.476562 344.824219 168.90625 342.433594 173.070312 C 341.515625 174.664062 339.007812 173.195312 339.984375 171.601562 C 341.882812 168.417969 342.988281 165.539062 341.761719 161.863281 C 341.148438 160.269531 340.289062 158.679688 339.679688 156.902344 Z M 322.410156 204.917969 C 329.453125 202.773438 334.042969 195.546875 336.554688 187.707031 C 336.617188 187.644531 336.738281 187.644531 336.800781 187.585938 C 337.351562 187.28125 337.289062 186.667969 336.984375 186.300781 C 338.515625 180.972656 339.128906 175.398438 338.945312 171.109375 C 338.757812 167.558594 337.839844 164.25 336.1875 161.066406 C 333.980469 156.964844 332.757812 153.226562 331.65625 148.699219 C 330.371094 143.308594 328.347656 138.160156 322.714844 136.203125 C 321.859375 135.898438 321.550781 137.183594 322.347656 137.550781 C 329.511719 140.488281 329.023438 149.125 330.675781 155.308594 C 331.65625 158.925781 333.496094 161.863281 334.777344 165.109375 C 317.753906 171.234375 300.730469 177.417969 283.703125 183.605469 C 275.070312 186.726562 266.371094 189.914062 257.738281 193.097656 C 249.46875 196.160156 241.324219 199.585938 232.691406 201.550781 C 232.261719 201.609375 232.445312 202.222656 232.875 202.160156 C 250.386719 198.851562 267.414062 191.320312 284.132812 185.316406 C 301.21875 179.195312 318.304688 173.070312 335.390625 166.886719 C 335.882812 168.417969 336.1875 170.070312 336.25 171.84375 C 336.308594 177.050781 335.390625 182.503906 333.371094 187.460938 C 327.371094 190.707031 321.0625 193.402344 314.507812 195.363281 C 308.261719 197.261719 301.832031 198.242188 295.460938 199.648438 C 289.339844 201.058594 284.625 203.753906 279.355469 207.121094 C 273.351562 210.917969 266.742188 213.671875 259.820312 215.203125 C 259.453125 215.265625 259.574219 215.878906 260.003906 215.816406 C 266.371094 214.53125 272.3125 212.574219 278.007812 209.386719 C 284.5 205.710938 290.011719 202.34375 297.421875 200.875 C 309.671875 198.425781 321.183594 195.546875 332.207031 190.035156 C 329.695312 195.117188 326.144531 199.585938 321.367188 202.710938 C 320.265625 203.386719 321 205.347656 322.410156 204.917969 Z M 95.9375 115.320312 C 95.445312 116.300781 94.894531 117.644531 94.160156 118.625 C 97.957031 120.464844 101.511719 122.667969 104.757812 125.484375 C 111.367188 131.242188 116.515625 138.347656 124.230469 142.574219 C 122.269531 139.511719 120.3125 136.507812 118.167969 133.570312 C 112.289062 125.546875 104.265625 119.117188 97.835938 111.523438 C 97.34375 112.871094 96.550781 114.097656 95.9375 115.320312 Z M 91.589844 99.886719 C 99.304688 112.320312 111.554688 120.648438 120.375 132.164062 C 125.089844 138.285156 129.191406 144.898438 133.355469 151.390625 C 138.132812 158.738281 143.765625 166.027344 147.625 173.804688 C 148.238281 175.089844 146.523438 176.621094 145.542969 175.398438 C 144.378906 173.929688 143.214844 172.457031 142.175781 170.867188 C 141.988281 171.050781 141.625 171.109375 141.316406 170.867188 C 134.703125 165.355469 126.804688 161.433594 120.433594 155.617188 C 113.878906 149.554688 110.511719 140.675781 102.980469 135.652344 C 102.429688 135.285156 102.917969 134.425781 103.53125 134.734375 C 110.941406 139.449219 114.429688 147.410156 120.554688 153.472656 C 126.128906 159.046875 134.089844 161.988281 139.785156 167.375 C 136.847656 162.84375 134.089844 158.128906 131.210938 153.65625 C 129.433594 150.839844 127.660156 148.023438 125.886719 145.203125 C 125.761719 145.203125 125.640625 145.203125 125.515625 145.203125 C 118.71875 143 113.695312 138.039062 108.738281 133.203125 C 102.0625 126.652344 95.324219 121.8125 86.382812 118.75 C 82.710938 117.523438 78.851562 116.054688 74.992188 115.378906 C 69.601562 114.460938 68.070312 119.914062 64.644531 122.667969 C 59.558594 126.832031 52.148438 127.691406 47.863281 132.835938 C 48.230469 132.835938 48.535156 132.835938 48.902344 132.835938 C 53.066406 132.648438 57.046875 132.285156 61.214844 132.898438 C 78.910156 135.40625 92.203125 148.511719 102.734375 161.988281 C 103.164062 162.535156 102.429688 163.394531 101.9375 162.78125 C 93.550781 152.738281 83.75 143.1875 71.316406 138.53125 C 66.96875 136.878906 62.5 135.957031 57.90625 135.773438 C 62.929688 140.796875 67.828125 145.390625 73.707031 149.617188 C 79.035156 153.472656 84.484375 157.269531 89.078125 161.925781 C 94.347656 167.25 97.160156 173.683594 100.46875 180.296875 C 104.695312 188.871094 111.0625 195.484375 120.128906 198.851562 C 120.617188 199.039062 120.375 199.773438 119.941406 199.585938 C 113.332031 197.261719 107.574219 193.402344 103.347656 187.769531 C 97.894531 180.417969 95.691406 171.292969 89.382812 164.4375 C 84.117188 158.679688 77.503906 154.390625 71.195312 149.796875 C 65.804688 145.878906 59.558594 141.53125 56.070312 135.652344 C 55.027344 135.652344 53.984375 135.652344 52.882812 135.773438 C 49.761719 136.019531 46.636719 136.449219 43.515625 135.957031 C 42.289062 135.773438 33.410156 133.753906 33.105469 136.632812 C 33.347656 136.449219 33.714844 136.449219 33.960938 136.753906 C 40.023438 143.796875 46.023438 150.105469 53.984375 155.066406 C 54.539062 155.433594 54.046875 156.226562 53.496094 155.921875 C 46.023438 151.941406 38.796875 146.371094 33.960938 139.328125 C 33.839844 140.367188 32.429688 141.222656 31.574219 140.246094 C 28.632812 136.816406 31.203125 132.222656 35.429688 131.488281 C 38.371094 130.9375 41.429688 131.792969 44.492188 132.40625 C 44.492188 132.40625 44.492188 132.34375 44.554688 132.34375 C 48.414062 125.667969 56.3125 124.933594 62.070312 120.648438 C 65.132812 118.382812 66.296875 113.972656 69.910156 112.441406 C 73.339844 111.035156 77.320312 112.503906 80.6875 113.484375 C 84.421875 114.582031 88.039062 115.808594 91.589844 117.339844 C 91.894531 116.054688 92.816406 114.769531 93.550781 113.789062 C 94.46875 112.503906 95.570312 111.15625 96.976562 110.359375 C 94.46875 107.296875 92.261719 104.050781 90.546875 100.375 C 90.242188 99.824219 91.160156 99.214844 91.589844 99.886719 " fill-opacity="1" fill-rule="nonzero"/></g></svg>